<svg width="196" height="60" viewBox="0 0 196 60" fill="none" xmlns="http://www.w3.org/2000/svg">
<path d="M92.8984 21.4336V29.1367H85.875V43.2969H92.8984V51H77.4072V29.1367H61.5V21.4336H77.4072V12.7109H85.875V21.4336H92.8984Z" fill="#F0F5FF"/>
<path d="M61.3691 37.8877V21.4336H69.8369V51H61.3691V47.7432C59.1885 50.377 56.3281 51.6797 52.7598 51.708C49.4746 51.708 46.8408 50.6885 44.8584 48.6494C42.8477 46.6387 41.8564 43.9199 41.8564 40.5498V21.4336H50.3242V38.001C50.3242 41.3145 52.4482 43.5234 55.6201 43.5234C57.3193 43.5234 58.707 42.9854 59.7832 41.9375C60.8311 40.8896 61.3691 39.5586 61.3691 37.8877Z" fill="#F0F5FF"/>
<path d="M10.3857 0.306641H32.2734V7.44336H10.3857V0.306641ZM41.6777 51H31.8223L29.3301 43.9766H13.0742L10.582 51H0.953125L15.9912 10.9834H26.6113L41.6777 51ZM21.2021 20.8955L15.9912 35.6787H26.4131L21.2021 20.8955Z" fill="#F0F5FF"/>
<mask id="mask0_1_17991" style="mask-type:alpha" maskUnits="userSpaceOnUse" x="88" y="10" width="52" height="43">
<path d="M139.146 10.0003L119.562 52.0002L88.5 52.0001L88.5 9.99998L139.146 10.0003Z" fill="#DAE0EE"/>
</mask>
<g mask="url(#mask0_1_17991)">
<rect x="99.5" y="15" width="64" height="32" rx="16" stroke="#F0F5FF" stroke-width="8"/>
</g>
<mask id="mask1_1_17991" style="mask-type:alpha" maskUnits="userSpaceOnUse" x="128" y="9" width="48" height="44">
<path d="M128.389 52.0001L148 9.94248L175.5 9.94238V52.0001L128.389 52.0001Z" fill="#DAE0EE"/>
</mask>
<g mask="url(#mask1_1_17991)">
<rect x="97.6" y="13.1" width="67.8" height="35.8" rx="17.9" stroke="#F0F5FF" stroke-width="4.2"/>
</g>
<path d="M117.66 58.8042L144.225 1.83691" stroke="#F0F5FF" stroke-width="4"/>
<path d="M182.402 50.6836C178.848 50.6836 175.867 49.5625 173.461 47.3477C171.055 45.1328 169.852 42.3711 169.852 39.0898H175.047C175.047 41.0859 175.758 42.7266 177.207 44.0664C178.656 45.4062 180.406 46.0898 182.512 46.0898C184.562 46.0898 186.285 45.4883 187.652 44.3125C188.992 43.1367 189.676 41.6875 189.676 39.9102C189.676 36.4375 186.859 34.0312 181.227 32.6367C174.062 30.8867 170.48 27.1133 170.48 21.3164C170.48 18.2812 171.629 15.7656 173.898 13.7148C176.168 11.6914 178.984 10.6797 182.402 10.6797C185.793 10.6797 188.637 11.7461 190.906 13.8516C193.176 15.957 194.324 18.6094 194.324 21.7812H189.129C189.129 19.9219 188.473 18.3633 187.188 17.1328C185.902 15.9023 184.289 15.2734 182.348 15.2734C180.488 15.2734 178.93 15.8203 177.645 16.9414C176.359 18.0625 175.73 19.457 175.73 21.0977C175.73 24.4062 178.355 26.7578 183.633 28.0977C191.18 29.957 194.953 33.7852 194.953 39.582C194.953 42.7539 193.75 45.4062 191.371 47.5117C188.992 49.6172 185.984 50.6836 182.402 50.6836Z" fill="#F0F5FF"/>
</svg>
