<svg width="43" height="40" viewBox="0 0 43 40" fill="none" xmlns="http://www.w3.org/2000/svg">
<rect width="43" height="40" rx="8" fill="#2F3746"/>
<path d="M19.4219 26.875C18.9844 26.875 18.6562 26.7109 18.3594 26.3438L14.3125 21.3594C14.0859 21.0859 13.9922 20.8281 13.9922 20.5547C13.9922 19.9297 14.4531 19.4766 15.0938 19.4766C15.4766 19.4766 15.7422 19.6172 16 19.9375L19.3906 24.2344L26.0078 13.75C26.2734 13.3281 26.5391 13.1719 26.9766 13.1719C27.6094 13.1719 28.0625 13.6172 28.0625 14.2344C28.0625 14.4766 27.9922 14.7266 27.8047 15.0078L20.4922 26.3203C20.2422 26.6953 19.8828 26.875 19.4219 26.875Z" fill="white"/>
</svg>
