<svg xmlns="http://www.w3.org/2000/svg" width="38.964" height="41.651" viewBox="0 0 38.964 41.651">
  <g id="single-01" transform="translate(-3 -1)">
    <path id="Path_11424" data-name="Path 11424" d="M37.988,43.494A45.776,45.776,0,0,0,22.482,41,45.776,45.776,0,0,0,6.976,43.494,6.054,6.054,0,0,0,3,49.178v5.929a.672.672,0,0,0,.672.672h37.62a.672.672,0,0,0,.672-.672V49.178A6.054,6.054,0,0,0,37.988,43.494Z" transform="translate(0 -13.128)" fill="#fff"/>
    <path id="Path_11425" data-name="Path 11425" d="M27.077,23.841A10.088,10.088,0,0,0,37.154,13.764V11.077a10.077,10.077,0,0,0-20.154,0v2.687A10.088,10.088,0,0,0,27.077,23.841Z" transform="translate(-4.595)" fill="#fff"/>
  </g>
</svg>
