<svg xmlns="http://www.w3.org/2000/svg" width="36.086" height="41.651" viewBox="0 0 36.086 41.651">
  <g id="fingerprint-recognition" transform="translate(-3.345 -1.115)">
    <path id="Path_11439" data-name="Path 11439" d="M8.075,6.969a1.068,1.068,0,0,1-.639-1.914A21.454,21.454,0,0,1,20.564,1.127c3.692,0,8.992.624,13.184,3.636A1.068,1.068,0,0,1,34,6.249a1.083,1.083,0,0,1-1.5.236A20.815,20.815,0,0,0,20.564,3.25a19.427,19.427,0,0,0-11.8,3.5,1.027,1.027,0,0,1-.694.222Z" transform="translate(0.858 0)" fill="#fff"/>
    <path id="Path_11440" data-name="Path 11440" d="M38.393,15.777a1.083,1.083,0,0,1-.875-.458c-2.4-3.387-6.688-7.9-16.1-7.9a19.427,19.427,0,0,0-16.139,7.91,1.068,1.068,0,0,1-1.485.236,1.055,1.055,0,0,1-.208-1.541A21.564,21.564,0,0,1,21.422,5.3c7.785,0,13.613,2.886,17.818,8.8a1.068,1.068,0,0,1-.264,1.485,1.1,1.1,0,0,1-.582.195Z" transform="translate(0 0.976)" fill="#fff"/>
    <path id="Path_11441" data-name="Path 11441" d="M15.951,40.814a1.083,1.083,0,0,1-1-.68,1.041,1.041,0,0,1,.611-1.388c6.064-2.331,9.714-7.1,9.714-12.78A3.885,3.885,0,0,0,21.113,21.8c-2.582,0-3.83,1.388-4.163,4.649a5.926,5.926,0,0,1-6.272,5.315A5.926,5.926,0,0,1,4.683,25.4,16.25,16.25,0,0,1,21.113,9.439,16.652,16.652,0,0,1,37.765,25.994a25.894,25.894,0,0,1-1.929,9.02,1.083,1.083,0,0,1-1.388.569A1.055,1.055,0,0,1,33.88,34.2a23.937,23.937,0,0,0,1.763-8.2A14.5,14.5,0,0,0,21.113,11.562a14.127,14.127,0,0,0-14.4,13.877,3.844,3.844,0,0,0,3.872,4.246,3.8,3.8,0,0,0,4.163-3.441c.5-4.316,2.622-6.508,6.328-6.508a5.981,5.981,0,0,1,6.272,6.328c0,6.578-4.163,12.1-11.1,14.751a1.277,1.277,0,0,1-.291,0Z" transform="translate(0.309 1.943)" fill="#fff"/>
    <path id="Path_11442" data-name="Path 11442" d="M25.391,38.831a1.124,1.124,0,0,1-.722-.278,1.055,1.055,0,0,1,0-1.5,17.527,17.527,0,0,0,4.912-12.045c0-2.165-.666-9.228-9.3-9.228a9.478,9.478,0,0,0-6.856,2.6,8.562,8.562,0,0,0-2.537,6.188A1.068,1.068,0,0,1,9.821,25.62a1.055,1.055,0,0,1-1.068-1.055,10.726,10.726,0,0,1,3.08-7.687,11.574,11.574,0,0,1,8.326-3.219c8.437,0,11.434,6.106,11.434,11.352a19.552,19.552,0,0,1-5.413,13.433,1.041,1.041,0,0,1-.791.389Z" transform="translate(1.262 2.928)" fill="#fff"/>
    <path id="Path_11443" data-name="Path 11443" d="M10.338,33.354a19.621,19.621,0,0,1-2.165-.125,1.062,1.062,0,1,1,.236-2.109c3.455.389,6.175-.222,8.1-1.832A8.839,8.839,0,0,0,19.455,23a1.041,1.041,0,0,1,1.137-.986,1.083,1.083,0,0,1,1,1.124,10.948,10.948,0,0,1-3.718,7.8,11.379,11.379,0,0,1-7.535,2.415Z" transform="translate(0.897 4.879)" fill="#fff"/>
  </g>
</svg>
