<svg width="1560" height="800" viewBox="0 0 1560 800" fill="none" xmlns="http://www.w3.org/2000/svg">
<path d="M1198.42 781.5L1222.5 733L1198.42 659.374L1169.84 666.539L1146.79 651.769L1125.09 666.539L1097.97 637L1041.02 681.308L980 707.154L993.5 738.5L1068 727L1198.42 781.5Z" fill="#0F1319"/>
<path d="M1436 460.5L1473.5 562.5L1238.79 571L1165.06 491.33L1144 417.154L1238.79 321L1560 348.5L1436 460.5Z" fill="#0F1319"/>
<path d="M1097.28 637L1242 572.606L1165.5 494L1024.93 463L939 558.906L1097.28 637Z" fill="#0F1319"/>
<path d="M1145 415.86L1166 495L1025 463.617L980 385.841L1058 349L1145 415.86Z" fill="#0F1319"/>
<path d="M1143.51 417L1240 321.27L1226.43 269.303L1188.74 228.276L1208.34 221.438L1188.74 164L1117.88 200.925L1044 259.73L1056.06 347.254L1143.51 417Z" fill="#0F1319"/>
<path d="M1239.5 321.5L1559.5 348.5L1527 211.5L1373.5 168L1323.5 236.5L1272.5 173.5C1272.5 173.5 1221.17 185.5 1198.5 192L1208 221.5L1188.5 228L1226.5 269.5L1239.5 321.5Z" fill="#0F1319"/>
<path d="M1044.94 260L1057 348.791L975.558 387.039V430.752L883.557 469L781 365.183L883.557 277.758L1044.94 260Z" fill="#0F1319"/>
<path d="M975 387L979 385L1025 462.92L939 559L972.231 573.649L940.569 642L753.614 600.989L731 471.122L847.308 432.895L882.5 469L975 431V387Z" fill="#0F1319"/>
<path d="M1098 637L971 575L941 642L789.561 608.352L776 749.763L876 758.5L993.5 739.5L979.433 706.252L1041.5 681L1098 637Z" fill="#0F1319"/>
<path d="M753.815 601.374L790 608.181L776.5 749.5L731.5 744.5L624.144 776L543.5 769.5L499 647.663L624.144 551L746.275 561.892L753.815 601.374Z" fill="#0F1319"/>
<path d="M1119.3 200.794L1045.6 259.309L887.662 277L829 180.381L850.057 47.0205L888.5 34L951.5 60L1068.16 26V139.557L1190 164.052L1119.3 200.794Z" fill="#0F1319"/>
<path d="M330.841 219.966L422 370.329L277.025 415.139L168.295 448L0.5 412L30.5 296.5L11.5 225.5L145.5 187L330.841 219.966Z" fill="#0F1319"/>
<path d="M621.421 219L643.5 62L592.5 48.5L385.5 62L363.88 120L356.209 151L371.552 176L331 219L421.964 370L546.9 415H584.162L563.338 342L653.204 310L708 267L621.421 219Z" fill="#0F1319"/>
<path d="M11.6569 679L11.6569 757.5L248 791.5L217.22 739.523L248 689.914L11.6569 679Z" fill="#0F1319"/>
<path d="M215 739.149L250.036 687.333L360.838 655.974L434.503 622L498.711 646.009L543 769L379.5 754.5L250.036 791.5L215 739.149Z" fill="#0F1319"/>
<path d="M499.998 648.586L602 569.03L566.051 562.91L503.343 510.128L461.539 517.778L354.518 478L239 557.5L181.501 500L80.0007 557.5L113.501 596.5L11.0007 657V678.5L247.501 688.5L362.001 657L434.782 623.342L499.998 648.586Z" fill="#0F1319"/>
<path d="M485.401 497.03L549 414.455L422.64 369L172 447L184 499L239 558L351.51 477.333L461.97 519L503.811 512.939L485.401 497.03Z" fill="#0F1319"/>
<path d="M780.599 286L731.038 249.154L704.27 268.925L622 217.287L645 61L728 82.5L848.885 47L826.857 181.438L861 234.217L780.599 286Z" fill="#0F1319"/>
<path d="M659.501 425.19L731.001 470L848.7 433.156L780.5 364.447L885 277.814L860.8 234L780.5 285.781L731.001 248.936L704.267 268.706L652.9 306.692L566 339.552L583.583 416.344L659.501 425.19Z" fill="#0F1319"/>
<path d="M731.587 471.372L747 563.961L622.604 552.891L602.789 570L566.462 563.961L485 498.545L548.848 413L584.058 417.143L660.033 426.083L731.587 471.372Z" fill="#0F1319"/>
<path d="M1125.5 667L1097.5 637L1240 572L1473 563L1424.5 655.5L1445 727L1386 775L1296.5 757.5L1226.5 793L1198.5 781.5L1224 733L1198.5 659.5L1170.5 664.5L1147.5 653L1125.5 667Z" fill="#0F1319"/>
<path d="M1436.5 101.5L1403 26L1251 115.5L1124 69.5L1068 26V139L1189 163L1199 192L1272.5 173.5L1324 236.5L1373.5 168L1436.5 101.5Z" fill="#0F1319"/>
<path d="M329.5 220L371 175.5L355.5 150.5L364 120L385 61L250 27L115.5 61L95 167L144.5 187.5L329.5 220Z" fill="#0F1319"/>
</svg>
