<svg xmlns="http://www.w3.org/2000/svg" width="34.284" height="39.998" viewBox="0 0 34.284 39.998">
  <g id="login" transform="translate(-4.5 -2.25)">
    <path id="Path_11444" data-name="Path 11444" d="M33.5,42.248H16.357A2.857,2.857,0,0,1,13.5,39.391V35.106h2.857v4.286H33.5V5.107H16.357V9.393H13.5V5.107A2.857,2.857,0,0,1,16.357,2.25H33.5a2.857,2.857,0,0,1,2.857,2.857V39.391A2.857,2.857,0,0,1,33.5,42.248Z" transform="translate(2.428 0)" fill="#fff"/>
    <path id="Path_11445" data-name="Path 11445" d="M19.628,26.378l5.113-5.129H4.5V18.393H24.742l-5.113-5.129,2.014-2.014,8.571,8.571-8.571,8.571Z" transform="translate(0 2.428)" fill="#fff"/>
  </g>
</svg>
