<svg xmlns="http://www.w3.org/2000/svg" width="41.567" height="44.337" viewBox="0 0 41.567 44.337">
  <g id="line-svgrepo-com" transform="translate(-9.341)">
    <g id="XMLID_1357_" transform="translate(9.341)">
      <path id="Path_11426" data-name="Path 11426" d="M223.431,61.625a3.527,3.527,0,0,0-3.519-3.5h-6.606a5.766,5.766,0,0,1,1.408,3.746l.06,12a3.56,3.56,0,0,1-2.814,3.5v9.261a1.784,1.784,0,0,0,3.569,0V72.374h.771V86.636a1.784,1.784,0,0,0,3.569,0c0-23.618-.032-10.063-.032-25.033a.312.312,0,1,1,.623,0c0,.012,0,.025,0,.037l.055,10.924A1.487,1.487,0,0,0,222,74.044h.008a1.487,1.487,0,0,0,1.479-1.494Z" transform="translate(-181.919 -49.506)" fill="#fff"/>
      <path id="Path_11427" data-name="Path 11427" d="M221.058,16.091a3.082,3.082,0,1,0-3.082-3.082,3.083,3.083,0,0,0,3.082,3.082Z" transform="translate(-187.043 -8.455)" fill="#fff"/>
      <path id="Path_11428" data-name="Path 11428" d="M144.738,73.36l-.06-12a3.875,3.875,0,0,0-3.867-3.847c-.319,0-8.636,0-8.816,0a6.07,6.07,0,0,1,1.593,4.07l.065,12.936a3.686,3.686,0,0,1-1.582,3.044V88.839a1.961,1.961,0,0,0,3.921,0V73.168h.847V88.839a1.961,1.961,0,0,0,3.921,0c0-25.936-.035-11.076-.036-27.475a.342.342,0,1,1,.684,0v.009l.06,12A1.634,1.634,0,0,0,143.1,75h.008A1.634,1.634,0,0,0,144.738,73.36Z" transform="translate(-113.811 -48.983)" fill="#fff"/>
      <path id="Path_11429" data-name="Path 11429" d="M23.025,57.072H13.573a4.176,4.176,0,0,0-4.167,4.146L9.341,74.154a1.76,1.76,0,0,0,1.71,1.767l.042,0H11.1a1.761,1.761,0,0,0,1.761-1.752l.065-12.936h0a.34.34,0,0,1,.68,0v29.6a2.113,2.113,0,1,0,4.226,0V73.946h.912V90.835a2.113,2.113,0,0,0,4.226,0c0-7.556-.036-21.686-.038-29.6a.368.368,0,1,1,.737,0l.065,12.936A1.761,1.761,0,0,0,25.5,75.923h.009a1.761,1.761,0,0,0,1.752-1.77l-.065-12.936a4.178,4.178,0,0,0-4.167-4.146Z" transform="translate(-9.341 -48.61)" fill="#fff"/>
      <path id="Path_11430" data-name="Path 11430" d="M48.9,7.3a3.649,3.649,0,1,0-3.649-3.649A3.651,3.651,0,0,0,48.9,7.3Z" transform="translate(-39.924)" fill="#fff"/>
      <path id="Path_11431" data-name="Path 11431" d="M142.513,11.323a3.386,3.386,0,1,0-3.386-3.386A3.388,3.388,0,0,0,142.513,11.323Z" transform="translate(-119.885 -3.875)" fill="#fff"/>
    </g>
  </g>
</svg>
