<svg width="18" height="18" viewBox="0 0 18 18" fill="none" xmlns="http://www.w3.org/2000/svg">
<g id="Frame" clip-path="url(#clip0_1_48511)">
<g id="Clip path group">
<mask id="mask0_1_48511" style="mask-type:luminance" maskUnits="userSpaceOnUse" x="0" y="0" width="18" height="18">
<g id="clip0_412_53">
<path id="Vector" d="M18 0H0V18H18V0Z" fill="white"/>
</g>
</mask>
<g mask="url(#mask0_1_48511)">
<g id="Group">
<path id="Vector_2" d="M15.2477 3.17087C14.0826 2.6257 12.8367 2.2295 11.5342 2.00391C11.3742 2.29312 11.1873 2.6821 11.0585 2.99154C9.67388 2.78332 8.30199 2.78332 6.94288 2.99154C6.81404 2.6821 6.6229 2.29312 6.46152 2.00391C5.15762 2.2295 3.9103 2.62716 2.74514 3.17374C0.394982 6.72514 -0.242108 10.1883 0.0764376 13.6023C1.63519 14.7664 3.14581 15.4735 4.63092 15.9362C4.99762 15.4316 5.32465 14.8951 5.60638 14.3297C5.06981 14.1258 4.55588 13.8742 4.07031 13.5821C4.19912 13.4867 4.32515 13.3869 4.44687 13.2842C7.40866 14.6695 10.6267 14.6695 13.553 13.2842C13.6762 13.3869 13.8022 13.4867 13.9296 13.5821C13.4426 13.8756 12.9273 14.1272 12.3907 14.3312C12.6725 14.8951 12.9981 15.433 13.3662 15.9376C14.8527 15.4749 16.3648 14.7678 17.9235 13.6023C18.2973 9.64462 17.285 6.21326 15.2477 3.17087ZM6.00989 11.5028C5.1208 11.5028 4.39166 10.6727 4.39166 9.66198C4.39166 8.65122 5.10522 7.81976 6.00989 7.81976C6.91456 7.81976 7.64367 8.64976 7.62809 9.66198C7.6295 10.6727 6.91456 11.5028 6.00989 11.5028ZM11.9901 11.5028C11.101 11.5028 10.3718 10.6727 10.3718 9.66198C10.3718 8.65122 11.0854 7.81976 11.9901 7.81976C12.8947 7.81976 13.6238 8.64976 13.6083 9.66198C13.6083 10.6727 12.8947 11.5028 11.9901 11.5028Z" fill="#818CA2"/>
</g>
</g>
</g>
</g>
<defs>
<clipPath id="clip0_1_48511">
<rect width="18" height="18" fill="white"/>
</clipPath>
</defs>
</svg>
