<svg xmlns="http://www.w3.org/2000/svg" width="40" height="40" viewBox="0 0 40 40">
  <g id="ios-expand" transform="translate(-64 -64)">
    <path id="Path_11423" data-name="Path 11423" d="M69.042,66.917h8.094a1.445,1.445,0,0,0,1.448-1.448v-.021A1.445,1.445,0,0,0,77.135,64H65.448A1.445,1.445,0,0,0,64,65.448V77.135a1.445,1.445,0,0,0,1.448,1.448h.021a1.445,1.445,0,0,0,1.448-1.448V69.042l12.2,12.115a1.433,1.433,0,0,0,1.021.417,1.4,1.4,0,0,0,1.021-.427,1.446,1.446,0,0,0,0-2.042ZM102.552,64H90.865a1.445,1.445,0,0,0-1.448,1.448v.021a1.445,1.445,0,0,0,1.448,1.448h8.094l-12.115,12.2a1.447,1.447,0,0,0,2.042,2.052l12.2-12.125v8.094a1.445,1.445,0,0,0,1.448,1.448h.021A1.445,1.445,0,0,0,104,77.135V65.448A1.445,1.445,0,0,0,102.552,64ZM80.135,86.417a1.433,1.433,0,0,0-1.021.417l-12.2,12.125V90.865a1.445,1.445,0,0,0-1.448-1.448h-.021A1.445,1.445,0,0,0,64,90.865v11.688A1.445,1.445,0,0,0,65.448,104H77.135a1.445,1.445,0,0,0,1.448-1.448v-.021a1.445,1.445,0,0,0-1.448-1.448H69.042l12.115-12.2a1.448,1.448,0,0,0-1.021-2.469Zm22.417,3h-.021a1.445,1.445,0,0,0-1.448,1.448v8.094l-12.2-12.115a1.433,1.433,0,0,0-1.021-.417,1.4,1.4,0,0,0-1.021.427,1.446,1.446,0,0,0,0,2.042l12.115,12.187H90.865a1.445,1.445,0,0,0-1.448,1.448v.021A1.445,1.445,0,0,0,90.865,104h11.688A1.445,1.445,0,0,0,104,102.552V90.865a1.445,1.445,0,0,0-1.448-1.448Z" fill="#fff"/>
  </g>
</svg>
