<svg xmlns="http://www.w3.org/2000/svg" width="30.476" height="40" viewBox="0 0 30.476 40">
  <g id="md-unlock" transform="translate(-96 -46)">
    <path id="Path_11437" data-name="Path 11437" d="M122.667,59.333h-1.9v-3.81a9.524,9.524,0,1,0-19.048,0h3.619a5.9,5.9,0,1,1,11.81,0h0v3.81H99.81A3.82,3.82,0,0,0,96,63.143V82.19A3.82,3.82,0,0,0,99.81,86h22.857a3.82,3.82,0,0,0,3.81-3.81V63.143A3.82,3.82,0,0,0,122.667,59.333ZM111.238,76.667a3.81,3.81,0,1,1,3.81-3.81A3.82,3.82,0,0,1,111.238,76.667Z" fill="#fff"/>
  </g>
</svg>
