<svg xmlns="http://www.w3.org/2000/svg" width="503.619" height="110.796" viewBox="0 0 503.619 110.796">
  <g id="Logo-Horizontal_Night-black" transform="translate(-0.117 -0.615)">
    <path id="Path_10" data-name="Path 10" d="M390.688,109.226l-3.759-10.554H362.445l-3.759,10.554H344.131l22.652-59.967h16l22.748,59.967Zm-2.506-75.319v9.883h-26.6V33.907Zm-21.4,52.388h15.712l-7.9-22.164Z" transform="translate(-170.762 -16.526)" fill="#262626"/>
    <path id="Path_11" data-name="Path 11" d="M506.553,95.443h12.723v44.328H476.768V95.443h12.723v32.143h17.062Z" transform="translate(-236.601 -47.071)" fill="#262626"/>
    <path id="Path_12" data-name="Path 12" d="M604.757,94.1H593.672v21.2h11.085V126.91H580.948V94.1h-8.1V82.582h8.1V69.533h12.724V82.582h11.085Z" transform="translate(-284.295 -34.21)" fill="#262626"/>
    <path id="Path_13" data-name="Path 13" d="M698.8,117.007h16.58v4.7H693.693V59.055H698.8Z" transform="translate(-344.278 -29.009)" fill="#262626"/>
    <path id="Path_14" data-name="Path 14" d="M780.557,135.166h6.266v4.606H775.93v-6.812c-2.8,4.893-8.483,7.868-15.423,7.868a16.271,16.271,0,0,1-11.277-4.221,13.542,13.542,0,0,1-4.434-10.362A14.582,14.582,0,0,1,749.23,115.4a16.271,16.271,0,0,1,11.277-4.222h14.941V100.337H747.591V95.443h32.966Zm-5.012-9.691v-9.5H761.182c-6.362,0-11.085,3.454-11.085,10.362,0,5.661,4.724,9.883,11.085,9.883C769.569,136.222,775.544,131.808,775.544,125.475Z" transform="translate(-369.645 -47.071)" fill="#262626"/>
    <path id="Path_15" data-name="Path 15" d="M881.457,83.042a22.9,22.9,0,0,1,6.458,16.5,23.13,23.13,0,0,1-6.458,16.6,21.7,21.7,0,0,1-16.29,6.621,20.8,20.8,0,0,1-19.182-11.706v10.65h-5.109V59.055h5.109V88.031a20.8,20.8,0,0,1,19.182-11.706A21.576,21.576,0,0,1,881.457,83.042ZM864.3,117.871a17.919,17.919,0,0,0,13.109-5.181,18.125,18.125,0,0,0,5.2-13.145,18.316,18.316,0,1,0-36.629,0,18.126,18.126,0,0,0,5.205,13.145A17.918,17.918,0,0,0,864.3,117.871Z" transform="translate(-417.337 -29.009)" fill="#262626"/>
    <path id="Path_16" data-name="Path 16" d="M948.384,126.547c0,4.893,4.049,8.635,9.254,8.635s8.964-3.358,8.964-7.676c0-4.414-3.374-7.484-10.121-9.115-8.482-2.111-12.724-6.333-12.724-12.857a11.347,11.347,0,0,1,3.952-8.827,14.562,14.562,0,0,1,9.832-3.358,13.746,13.746,0,0,1,9.736,3.646,11.891,11.891,0,0,1,3.952,9.019h-5.2c0-4.509-3.759-8.06-8.675-8.06-4.82,0-8.483,3.262-8.483,7.292,0,4.222,3.278,7.2,9.832,8.827,8.675,2.206,13.014,6.524,13.014,13.049a11.716,11.716,0,0,1-4.146,9.211,15.133,15.133,0,0,1-10.217,3.454,14.652,14.652,0,0,1-10.313-3.742,12.6,12.6,0,0,1-4.145-9.5Z" transform="translate(-467.975 -46.032)" fill="#262626"/>
    <path id="Path_17" data-name="Path 17" d="M136.921.615V50.425l-21.6,5.777c-3.615.947-3.9,2.272-3.9,6.345v48.864H85.358V63.967l21.025-5.682c4.091-1.136,4.472-1.61,4.472-6.25V1.656L76.891,64.725,50.824,71.638A8.3,8.3,0,0,0,45.5,75.9L26.184,111.411H.117L16.861,80.444,40.835,74.1A13.417,13.417,0,0,0,49.4,67.282L85.358.615Z" transform="translate(0 0)" fill="#262626"/>
  </g>
</svg>
