<svg width="274" height="84" viewBox="0 0 274 84" fill="none" xmlns="http://www.w3.org/2000/svg">
<path d="M129.858 29.6072V40.3916H120.025V60.2158H129.858V71.0002H108.17V40.3916H85.9V29.6072H108.17V17.3955H120.025V29.6072H129.858Z" fill="#F0F5FF"/>
<path d="M85.7168 52.6427V29.6069H97.5717V70.9999H85.7168V66.4403C82.6639 70.1276 78.6594 71.9515 73.6637 71.9911C69.0644 71.9911 65.3771 70.5638 62.6018 67.7091C59.7867 64.894 58.399 61.0878 58.399 56.3696V29.6069H70.2539V52.8013C70.2539 57.4401 73.2275 60.5327 77.6682 60.5327C80.0471 60.5327 81.9898 59.7794 83.4965 58.3124C84.9635 56.8454 85.7168 54.9819 85.7168 52.6427Z" fill="#F0F5FF"/>
<path d="M14.34 0.0292969H44.9828V10.0207H14.34V0.0292969ZM58.1488 71H44.3512L40.8621 61.1672H18.1039L14.6148 71H1.13437L22.1877 14.9768H37.0559L58.1488 71ZM29.483 28.8537L22.1877 49.5502H36.7783L29.483 28.8537Z" fill="#F0F5FF"/>
<mask id="mask0_0_4310" style="mask-type:alpha" maskUnits="userSpaceOnUse" x="123" y="13" width="72" height="60">
<path d="M194.605 13.6009L167.186 72.4009L123.7 72.4007L123.7 13.6005L194.605 13.6009Z" fill="#DAE0EE"/>
</mask>
<g mask="url(#mask0_0_4310)">
<rect x="139.1" y="20.6" width="89.6" height="44.8" rx="22.4" stroke="#F0F5FF" stroke-width="11.2"/>
</g>
<mask id="mask1_0_4310" style="mask-type:alpha" maskUnits="userSpaceOnUse" x="179" y="13" width="67" height="60">
<path d="M179.544 72.4003L207.001 13.5197L245.5 13.5195V72.4003L179.544 72.4003Z" fill="#DAE0EE"/>
</mask>
<g mask="url(#mask1_0_4310)">
<rect x="136.44" y="17.94" width="94.92" height="50.12" rx="25.06" stroke="#F0F5FF" stroke-width="5.88"/>
</g>
<path d="M164.525 81.926L201.714 2.17188" stroke="#F0F5FF" stroke-width="5.6"/>
<path d="M255.163 70.5572C250.187 70.5572 246.014 68.9877 242.645 65.8869C239.277 62.7861 237.592 58.9197 237.592 54.326H244.866C244.866 57.1205 245.861 59.4174 247.89 61.2932C249.919 63.1689 252.369 64.126 255.316 64.126C258.187 64.126 260.599 63.2838 262.513 61.6377C264.389 59.9916 265.346 57.9627 265.346 55.4744C265.346 50.6127 261.403 47.2439 253.517 45.2916C243.487 42.8416 238.473 37.5588 238.473 29.4432C238.473 25.1939 240.08 21.6721 243.258 18.801C246.435 15.9682 250.378 14.5518 255.163 14.5518C259.91 14.5518 263.891 16.0447 267.069 18.9924C270.246 21.94 271.854 25.6533 271.854 30.0939H264.58C264.58 27.4908 263.662 25.3088 261.862 23.5861C260.063 21.8635 257.805 20.983 255.087 20.983C252.484 20.983 250.302 21.7486 248.502 23.3182C246.703 24.8877 245.823 26.84 245.823 29.1369C245.823 33.7689 249.498 37.0611 256.886 38.9369C267.452 41.54 272.734 46.8994 272.734 55.015C272.734 59.4557 271.05 63.1689 267.72 66.1166C264.389 69.0643 260.178 70.5572 255.163 70.5572Z" fill="#F0F5FF"/>
</svg>
