<svg xmlns="http://www.w3.org/2000/svg" width="944" height="609.604" viewBox="0 0 944 609.604">
  <g id="Group_12437" data-name="Group 12437" transform="translate(-761 -1345.782)">
    <g id="Group_12436" data-name="Group 12436">
      <path id="Path_1699" data-name="Path 1699" d="M3695,3175.782l-17.45,6.251v603.353H3695Z" transform="translate(-1990 -1830)" fill="#fff"/>
      <path id="Path_1700" data-name="Path 1700" d="M3211.151,3297.194l-7.345,2.612-.082,368.323,7.066,2.4Z" transform="translate(-1880 -1830)" fill="#fff"/>
      <path id="Path_1701" data-name="Path 1701" d="M3001.341,3350.588l-4.147,1.579-.164,265.526,4.011,2Z" transform="translate(-1880 -1830)" fill="#fff"/>
      <path id="Path_1702" data-name="Path 1702" d="M2881.284,3380.475l-2.377,1.592-.226,206.2,2.853,1.978Z" transform="translate(-1880 -1830)" fill="#fff"/>
      <path id="Path_1703" data-name="Path 1703" d="M2807.048,3400.8l-2.27.847-.219,169.312h1.941Z" transform="translate(-1880 -1830)" fill="#fff" opacity="0.502"/>
      <path id="Path_1704" data-name="Path 1704" d="M2753.035,3415.087h-1.272l-.822,144.221h2.094Z" transform="translate(-1880 -1830)" fill="#fff" opacity="0.499"/>
      <line id="Line_1" data-name="Line 1" x1="1" y2="123" transform="translate(833.5 1595.5)" fill="none" stroke="#fff" stroke-width="1" opacity="0.246"/>
      <line id="Line_2" data-name="Line 2" y2="108" transform="translate(803.5 1603.5)" fill="none" stroke="#fff" stroke-width="1" opacity="0.246"/>
      <line id="Line_3" data-name="Line 3" y2="91" transform="translate(780.5 1612.5)" fill="none" stroke="#fff" stroke-width="1" opacity="0.246"/>
      <line id="Line_4" data-name="Line 4" x1="1" y2="86" transform="translate(761.5 1615.5)" fill="none" stroke="#fff" stroke-width="1" opacity="0.246"/>
    </g>
  </g>
</svg>
