<svg width="18" height="18" viewBox="0 0 18 18" fill="none" xmlns="http://www.w3.org/2000/svg">
<g id="Frame">
<path id="Vector" d="M15.7781 4.30313L16.8469 2.95312C17.1563 2.5875 17.2406 2.30625 17.2688 2.16562C16.425 2.67187 15.6375 2.84063 15.1312 2.84063H14.9344L14.8219 2.72812C14.1469 2.1375 13.3031 1.82812 12.4031 1.82812C10.4344 1.82812 8.8875 3.45938 8.8875 5.34375C8.8875 5.45625 8.8875 5.625 8.91563 5.7375L9 6.3L8.40937 6.27187C4.80937 6.15937 1.85625 3.06562 1.37813 2.53125C0.590625 3.9375 1.04063 5.2875 1.51875 6.13125L2.475 7.70625L0.95625 6.8625C0.984375 8.04375 1.43437 8.97187 2.30625 9.64687L3.06562 10.2094L2.30625 10.5188C2.78437 11.9531 3.85313 12.5438 4.64062 12.7688L5.68125 13.05L4.69688 13.725C3.12188 14.85 1.15312 14.7656 0.28125 14.6813C2.05313 15.9188 4.1625 16.2 5.625 16.2C6.72188 16.2 7.5375 16.0875 7.73438 16.0031C15.6094 14.1469 15.975 7.11562 15.975 5.70937V5.5125L16.1438 5.4C17.1 4.5 17.4937 4.02188 17.7188 3.74063C17.6344 3.76875 17.5219 3.825 17.4094 3.85312L15.7781 4.30313Z" fill="#818CA2"/>
</g>
</svg>
