<?xml version="1.0" encoding="utf-8"?>
<!-- Generator: Adobe Illustrator 28.0.0, SVG Export Plug-In . SVG Version: 6.00 Build 0)  -->
<svg version="1.1" id="Layer_1" xmlns="http://www.w3.org/2000/svg" xmlns:xlink="http://www.w3.org/1999/xlink" x="0px" y="0px"
	 viewBox="0 0 578.6 376.6" style="enable-background:new 0 0 578.6 376.6;" xml:space="preserve">
<style type="text/css">
	.st0{fill:#FFFFFF;}
</style>
<polygon class="st0" points="181.2,274 245.6,274 245.6,253.6 207.1,253.6 207.1,241.2 242.7,241.2 242.7,221.5 207.1,221.5 
	207.1,209.5 245.6,209.5 245.6,189.2 181.2,189.2 "/>
<g>
	<path class="st0" d="M387.9,221.4l-12.2-2.4c-5.7-1.1-8.1-3-8.1-6.6c0-3.8,3.4-6.3,8-6.3c5.3,0,8.5,2.9,8.6,7.9h26.2
		c-0.8-15.4-12.8-26.4-34.1-26.4s-35,11.1-35,27.6c0,14.2,7.6,22.8,25.5,26.4l12.6,2.5c4.6,1,6.5,2.8,6.5,6.3c0,3.9-2.8,6.5-8.5,6.5
		c-6.4,0-10.3-3.8-10.4-9.8h-26.7c0.3,19,15.2,28.6,36.6,28.6s35.1-11.2,35.1-29C412.1,231.1,402.2,224.2,387.9,221.4"/>
	<path class="st0" d="M536.5,292.6c0,43.2-35.3,78.9-78.9,78.9s-78.9-35.6-78.9-78.9h-5.1c0,43.2-35.6,78.9-78.9,78.9
		S216,335.9,216,292.6h-5.1c0,43.2-35.6,78.9-78.9,78.9s-78.9-35.6-78.9-78.9V274H62l16.1-56.5V274h23.1v-84.8H65.1l-11.9,41.7
		v-61.2c0-43.2,35.3-78.9,78.9-78.9s78.9,35.6,78.9,78.9h5.1c0-43.2,35.6-78.9,78.9-78.9s78.9,35.6,78.9,78.9h5.1
		c0-43.2,35.6-78.9,78.9-78.9s78.9,35.6,78.9,78.9v50.7h-11.1v-31.3h-25.9V274h25.9v-32.2h11.1L536.5,292.6L536.5,292.6z
		 M552.7,189.2v31.3h-11.1v-50.7c0-46.2-37.4-84-84-84c-36.7,0-68,23.6-79.2,56.3c-0.7,1.8-1.1,2.6-2.2,2.6s-1.5-0.7-2.2-2.6
		c-11.3-32.7-42.5-56.3-79.2-56.3s-68,23.6-79.2,56.3c-0.7,1.8-1.1,2.6-2.2,2.6s-1.4-0.7-2.2-2.6C200,109.4,168.7,85.8,132,85.8
		c-46.5,0-84,37.8-84,84V231l-12-41.8H0V274h23.1v-56.2l16,56.2h9v18.6c0,46.2,37.4,84,84,84c36.7,0,68-23.6,79.2-56.3
		c0.7-1.8,1.1-2.5,2.2-2.5s1.5,0.7,2.2,2.5c11.3,32.7,42.5,56.3,79.2,56.3s68-23.6,79.2-56.3c0.7-1.8,1.1-2.5,2.2-2.5
		s1.5,0.7,2.2,2.5c11.3,32.7,42.5,56.3,79.2,56.3c46.5,0,84-37.8,84-84v-50.9h11.1V274h25.9v-84.8L552.7,189.2L552.7,189.2z"/>
	<path class="st0" d="M521.9,44.3c11,0,17.6-5.6,17.6-14.5c0-7.8-5-11.3-12.2-12.7l-6.2-1.2c-2.8-0.5-4.1-1.5-4.1-3.3s1.7-3.2,4-3.2
		c2.7,0,4.3,1.5,4.3,3.9h13.2C538.3,5.5,532.3,0,521.6,0S504,5.6,504,13.9c0,7.2,3.8,11.4,12.8,13.3l6.3,1.3
		c2.3,0.5,3.3,1.4,3.3,3.2c0,1.9-1.4,3.3-4.2,3.3c-3.2,0-5.2-1.9-5.2-4.9h-13.4C503.7,39.5,511.2,44.3,521.9,44.3 M475.3,0.8
		L469,15.1l-6.4-14.3h-14.8l14.6,28v14.6h13V28.9l14.1-28.1L475.3,0.8L475.3,0.8z M416.3,44.3c11,0,17.6-5.6,17.6-14.5
		c0-7.8-5-11.3-12.2-12.7l-6.1-1.2c-2.9-0.5-4.1-1.5-4.1-3.3s1.7-3.2,4-3.2c2.7,0,4.3,1.5,4.3,3.9H433C432.6,5.5,426.6,0,415.9,0
		s-17.6,5.6-17.6,13.9c0,7.2,3.8,11.4,12.8,13.3l6.3,1.3c2.3,0.5,3.3,1.4,3.3,3.2c0,1.9-1.4,3.3-4.2,3.3c-3.2,0-5.2-1.9-5.2-4.9
		h-13.4C398,39.5,405.6,44.3,416.3,44.3 M366.7,25.3L354.3,0.9h-17v42.6h12.1V16l14.4,27.4h15V0.8h-12.1V25.3L366.7,25.3z
		 M317.2,0.8h-32.3v42.6h32.3V33.2h-19.3v-6.3h17.9v-9.9h-17.9v-6h19.3V0.8z M248.3,44.3c11,0,17.6-5.6,17.6-14.5
		c0-7.8-5-11.3-12.2-12.7l-6.1-1.2c-2.9-0.5-4.1-1.5-4.1-3.3s1.7-3.2,4-3.2c2.7,0,4.3,1.5,4.3,3.9h13.2C264.7,5.5,258.6,0,248,0
		s-17.6,5.6-17.6,13.9c0,7.2,3.8,11.4,12.8,13.3l6.3,1.3c2.3,0.5,3.3,1.4,3.3,3.2c0,1.9-1.4,3.3-4.2,3.3c-3.2,0-5.2-1.9-5.2-4.9
		h-13.4C230.1,39.5,237.6,44.3,248.3,44.3 M198.7,25.3L186.3,0.8h-16.9v42.6h12.1V16l14.4,27.4h15V0.8h-12.1L198.7,25.3L198.7,25.3z
		 M129.3,33.8c-5.1,0-7.6-3.8-7.6-11.7s2.7-11.7,7.6-11.7c4.9,0,7.6,3.8,7.6,11.7S134.4,33.8,129.3,33.8 M129.3,44.3
		c12.8,0,21-7.6,21-22.1S142.2,0,129.3,0s-21,7.6-21,22.1S116.1,44.3,129.3,44.3 M71.4,44.3c11.6,0,19.6-5.6,19.9-18H78
		c-0.2,4-1.9,7.5-6.4,7.5c-5.2,0-7.5-4.1-7.5-11.7s2.6-11.7,7.4-11.7c4.2,0,6.2,2.7,6.4,7.3h13.3C91.1,6.4,83.3,0,71.2,0
		S50.8,7.8,50.8,22.2S58.2,44.3,71.4,44.3"/>
</g>
</svg>
