<?xml version="1.0" encoding="utf-8"?>
<!-- Generator: Adobe Illustrator 26.4.1, SVG Export Plug-In . SVG Version: 6.00 Build 0)  -->
<svg version="1.0" id="katman_1" xmlns="http://www.w3.org/2000/svg" xmlns:xlink="http://www.w3.org/1999/xlink" x="0px" y="0px"
	 viewBox="0 0 841.89 595.28" style="enable-background:new 0 0 841.89 595.28;" xml:space="preserve">
<style type="text/css">
	.st0{fill:#006DAD;}
	.st1{fill:#0076B4;}
	.st2{fill:#0079B7;}
	.st3{fill:#007FBD;}
	.st4{fill:#0087C2;}
	.st5{fill:#0090C9;}
	.st6{fill:#04A3D6;}
	.st7{fill:#00ABD4;}
	.st8{fill:#FFFFFF;}
	.st9{fill:#024064;}
	.st10{fill:#00A0D4;}
</style>
<path class="st0" d="M563.94,404.22h-70.61v-71.2L563.94,404.22z"/>
<path class="st1" d="M493.33,333.02h70.61v71.2L493.33,333.02z"/>
<path class="st2" d="M634.67,404.22h-70.73v-71.2L634.67,404.22z"/>
<path class="st3" d="M563.94,333.02h70.73v71.2L563.94,333.02z"/>
<path class="st4" d="M705.27,404.22h-70.61v-71.2L705.27,404.22z"/>
<path class="st5" d="M634.66,333.02h70.61v71.2L634.66,333.02z"/>
<path class="st6" d="M776,404.22h-70.73v-71.2L776,404.22z"/>
<path class="st7" d="M705.27,333.02H776v71.2L705.27,333.02z"/>
<path class="st8" d="M515.6,366.31v-0.12c0-13.03,9.83-23.81,23.93-23.81c8.65,0,13.86,2.84,18.13,7.11l-6.4,7.46
	c-3.55-3.2-7.11-5.21-11.73-5.21c-7.7,0-13.39,6.4-13.39,14.33v0.12c0,7.94,5.45,14.45,13.39,14.45c5.21,0,8.53-2.13,12.08-5.33
	l6.4,6.52c-4.74,5.09-9.95,8.17-18.84,8.17C525.55,390,515.6,379.58,515.6,366.31z M564.18,379.1c0,6.99,5.45,10.78,12.08,10.78
	c4.86,0,8.17-1.78,10.66-4.5v3.79h9.6V368.8c0-4.74-1.18-8.65-3.79-11.25c-2.49-2.49-6.4-3.91-11.85-3.91
	c-5.92,0-9.83,1.07-13.62,2.84l2.49,7.58c3.2-1.18,5.92-1.9,9.71-1.9c4.98,0,7.58,2.25,7.58,6.4v0.59
	c-2.49-0.83-5.09-1.42-8.65-1.42c-8.29,0-14.22,3.55-14.22,11.25V379.1z M587.16,376.73c0,3.55-3.2,6.16-7.82,6.16
	c-3.2,0-5.45-1.54-5.45-4.26v-0.12c0-3.2,2.61-4.86,6.87-4.86c2.49,0,4.62,0.47,6.4,1.3V376.73 M606.59,399.72h9.95v-15.16
	c2.37,2.84,5.69,5.21,11.02,5.21c8.29,0,15.99-6.4,15.99-18.24v-0.12c0-11.73-7.82-18.24-15.99-18.24c-5.21,0-8.53,2.49-11.02,5.69
	v-5.09h-9.95V399.72z M633.48,371.64c0,5.92-3.91,9.71-8.65,9.71c-4.62,0-8.53-3.91-8.53-9.71v-0.12c0-5.81,3.91-9.71,8.53-9.71
	s8.65,3.91,8.65,9.71V371.64z M652.44,350.08h10.54v-8.89h-10.54V350.08z M652.67,389.17h9.95v-35.19h-9.95V389.17z M674.94,379.22
	c0,8.17,4.15,10.54,10.19,10.54c3.32,0,5.8-0.83,7.94-2.01v-8.06c-1.42,0.83-3.08,1.3-4.98,1.3c-2.25,0-3.2-1.07-3.2-3.44v-15.05
	h8.29v-8.53h-8.29v-9h-9.95v9h-4.15v8.53h4.15V379.22z M699.82,379.1c0,6.99,5.45,10.78,12.08,10.78c4.86,0,8.17-1.78,10.66-4.5
	v3.79h9.6V368.8c0-4.74-1.18-8.65-3.79-11.25c-2.49-2.49-6.4-3.91-11.85-3.91c-5.92,0-9.83,1.07-13.62,2.84l2.49,7.58
	c3.2-1.18,5.92-1.9,9.71-1.9c4.98,0,7.58,2.25,7.58,6.4v0.59c-2.49-0.83-5.09-1.42-8.65-1.42c-8.29,0-14.22,3.55-14.22,11.25V379.1
	 M722.69,376.73c0,3.55-3.2,6.16-7.82,6.16c-3.2,0-5.45-1.54-5.45-4.26v-0.12c0-3.2,2.61-4.86,6.87-4.86c2.49,0,4.62,0.47,6.4,1.3
	V376.73 M742.59,389.17h9.95v-47.98h-9.95V389.17z"/>
<path class="st9" d="M65.18,192.16h24.64v44.31h45.49v-44.31h24.64v112.07h-24.64v-45.02H89.82v45.02H65.18V192.16z M394.41,304.23
	h24.64v-45.02h45.49v45.02h24.64V192.16h-24.64v44.31h-45.49v-44.31h-24.64V304.23z M170.85,304.23h25.12l10.19-25.12h47.39
	l10.19,25.12h25.83l-48.1-112.9h-22.75L170.85,304.23z M215.04,257.32l14.93-36.37l14.93,36.37H215.04z M291.34,287.88
	c13.51,11.97,30.57,17.89,47.51,17.89c24.17,0,41.11-12.44,41.11-34.71v-0.36c0-19.55-12.79-27.72-35.54-33.65
	c-19.43-4.98-24.17-7.35-24.17-14.69v-0.36c0-5.45,4.98-9.71,14.45-9.71s19.19,4.15,29.14,11.02l12.79-18.6
	c-11.37-9.12-25.35-14.22-41.7-14.22c-22.86,0-39.21,13.51-39.21,33.76v0.36c0,22.27,14.57,28.55,37.2,34.24
	c18.72,4.86,22.63,8.06,22.63,14.22v0.36c0,6.52-6.04,10.54-16.23,10.54c-12.79,0-23.34-5.33-33.41-13.62L291.34,287.88z
	 M574.48,304.23h85.42v-21.92h-60.89v-23.58h52.84v-21.92h-52.84v-22.75h60.06v-21.92h-84.59V304.23L574.48,304.23z M706.93,304.23
	h24.64v-44.66l43.12-67.41h-28.08l-27.25,45.02l-26.77-45.02h-28.79l43.12,67.88V304.23L706.93,304.23z"/>
<path class="st2" d="M530.41,269.76l-17.18-17.18l-17.3,17.18H530.41z"/>
<path class="st3" d="M495.94,269.76l17.3,17.3l17.18-17.3H495.94z"/>
<path class="st4" d="M547.59,287.05l-17.18-17.3l-17.18,17.3H547.59z"/>
<path class="st5" d="M513.23,287.05l17.18,17.18l17.18-17.18H513.23z"/>
<path class="st10" d="M564.77,304.23l-17.18-17.18l-17.18,17.18H564.77z"/>
<path class="st9" d="M530.41,226.99L513,244.4l-17.42-17.42H530.41z"/>
<path class="st9" d="M495.58,226.99L513,209.57l17.42,17.42H495.58z"/>
<path class="st9" d="M547.83,209.57l-17.42,17.42L513,209.57H547.83z"/>
<path class="st9" d="M513,209.57l17.42-17.42l17.42,17.42H513z"/>
<path class="st9" d="M565.24,192.16l-17.42,17.42l-17.42-17.42H565.24z"/>
</svg>
